<svg xmlns:xlink="http://www.w3.org/1999/xlink" xmlns="http://www.w3.org/2000/svg" width="184" height="428" viewBox="0 0 184 428" class="empty-yQo7LQ"><rect x="40" y="6" width="144" height="20" rx="10" fill="#36393F"></rect><circle cx="16" cy="16" r="16" fill="#36393F"></circle><rect x="40" y="50" width="144" height="20" rx="10" opacity="0.9" fill="#36393F"></rect><circle cx="16" cy="60" r="16" opacity="0.9" fill="#36393F"></circle><rect x="40" y="94" width="144" height="20" rx="10" opacity="0.8" fill="#36393F"></rect><circle cx="16" cy="104" r="16" opacity="0.8" fill="#36393F"></circle><rect x="40" y="138" width="144" height="20" rx="10" opacity="0.7" fill="#36393F"></rect><circle cx="16" cy="148" r="16" opacity="0.7" fill="#36393F"></circle><rect x="40" y="182" width="144" height="20" rx="10" opacity="0.6" fill="#36393F"></rect><circle cx="16" cy="192" r="16" opacity="0.6" fill="#36393F"></circle><rect x="40" y="226" width="144" height="20" rx="10" opacity="0.5" fill="#36393F"></rect><circle cx="16" cy="236" r="16" opacity="0.5" fill="#36393F"></circle><rect x="40" y="270" width="144" height="20" rx="10" opacity="0.4" fill="#36393F"></rect><circle cx="16" cy="280" r="16" opacity="0.4" fill="#36393F"></circle><rect x="40" y="314" width="144" height="20" rx="10" opacity="0.3" fill="#36393F"></rect><circle cx="16" cy="324" r="16" opacity="0.3" fill="#36393F"></circle><rect x="40" y="358" width="144" height="20" rx="10" opacity="0.2" fill="#36393F"></rect><circle cx="16" cy="368" r="16" opacity="0.2" fill="#36393F"></circle><rect x="40" y="402" width="144" height="20" rx="10" opacity="0.1" fill="#36393F"></rect><circle cx="16" cy="412" r="16" opacity="0.1" fill="#36393F"></circle></svg>